<svg width="11" height="11" viewBox="0 0 11 11" fill="none" xmlns="http://www.w3.org/2000/svg">
    <g clip-path="url(#clip0)">
        <path d="M9.38855 1.60996C7.24368 -0.534884 3.75352 -0.534884 1.60865 1.60996C-0.536218 3.75483 -0.536218 7.24477 1.60865 9.38964C2.68109 10.4621 4.08995 10.9984 5.49859 10.9984C6.90724 10.9984 8.3161 10.4621 9.38853 9.38964C10.4276 8.35065 11 6.96923 11 5.49979C11 4.03039 10.4276 2.64892 9.38855 1.60996ZM9.06444 9.06552C7.09819 11.0316 3.89904 11.0319 1.93279 9.06552C-0.0332258 7.09936 -0.0332258 3.90021 1.93279 1.93412C2.91591 0.950973 4.20725 0.459433 5.49861 0.459433C6.78995 0.459433 8.08131 0.950973 9.06444 1.93412C10.0169 2.88654 10.5416 4.15283 10.5416 5.49979C10.5416 6.84677 10.0169 8.11304 9.06444 9.06552Z" fill="#C80B27"/>
        <path d="M5.8228 5.49992L8.09207 3.23071L7.76793 2.9066L5.49867 5.17576L3.22951 2.9066L2.9054 3.23071L5.17455 5.49987L3.06745 7.60687L3.39159 7.93102L5.49867 5.82401L7.77062 8.09596L8.09475 7.77182L5.8228 5.49992Z" fill="#C80B27"/>
    </g>
    <defs>
        <clipPath id="clip0">
            <rect width="11" height="11" fill="white"/>
        </clipPath>
    </defs>
</svg>