<svg width="98" height="98" viewBox="0 0 98 98" fill="none" xmlns="http://www.w3.org/2000/svg">
    <rect width="130" height="130" transform="translate(-16 -16)" fill="none" />
    <path d="M49 0.25C22.1242 0.25 0.25 22.1242 0.25 49C0.25 75.8758 22.1242 97.75 49 97.75C75.8758 97.75 97.75 75.8758 97.75 49C97.75 22.1242 75.8758 0.25 49 0.25ZM49 8.375C71.4847 8.375 89.625 26.5153 89.625 49C89.625 69.4238 74.6412 86.2177 55.0461 89.1331V60.8463H66.6147L68.4318 49.0952H55.0461V42.6761C55.0461 37.7971 56.6491 33.4641 61.2113 33.4641H68.5428V23.2126C67.255 23.038 64.5297 22.6572 59.3784 22.6572C48.6209 22.6572 42.3191 28.3365 42.3191 41.2797V49.0952H31.2583V60.8463H42.3191V89.0299C23.036 85.8495 8.375 69.203 8.375 49C8.375 26.5153 26.5153 8.375 49 8.375Z" fill="#3B5998" />
    <defs>
        <linearGradient id="paint0_linear" x1="65" y1="0" x2="65" y2="130" gradientUnits="userSpaceOnUse">
            <stop stop-color="white" />
            <stop offset="1" stop-color="white" stop-opacity="0" />
        </linearGradient>
    </defs>
</svg>