<svg width="100" height="100" viewBox="0 0 100 100" fill="none" xmlns="http://www.w3.org/2000/svg">
    <path d="M33.336 50C33.336 40.7956 40.7956 33.332 50 33.332C59.2044 33.332 66.668 40.7956 66.668 50C66.668 59.2044 59.2044 66.668 50 66.668C40.7956 66.668 33.336 59.2044 33.336 50ZM24.3256 50C24.3256 64.18 35.82 75.6744 50 75.6744C64.18 75.6744 75.6744 64.18 75.6744 50C75.6744 35.82 64.18 24.3256 50 24.3256C35.82 24.3256 24.3256 35.82 24.3256 50ZM70.6908 23.3076C70.6903 24.4943 71.0418 25.6545 71.7006 26.6414C72.3595 27.6284 73.2963 28.3978 74.3925 28.8524C75.4887 29.3069 76.695 29.4262 77.859 29.1952C79.023 28.9641 80.0923 28.3931 80.9317 27.5543C81.7712 26.7156 82.3431 25.6467 82.575 24.4829C82.807 23.3191 82.6887 22.1127 82.235 21.0161C81.7813 19.9196 81.0126 18.9822 80.0262 18.3225C79.0398 17.6628 77.8799 17.3105 76.6932 17.31H76.6908C75.1001 17.3107 73.5748 17.9428 72.4498 19.0673C71.3248 20.1919 70.6922 21.7169 70.6908 23.3076V23.3076ZM29.8 90.6988C24.9252 90.4768 22.2756 89.6648 20.5148 88.9788C18.1804 88.07 16.5148 86.9876 14.7636 85.2388C13.0124 83.49 11.9284 81.826 11.0236 79.4916C10.3372 77.7316 9.5252 75.0812 9.3036 70.2064C9.0612 64.936 9.0128 63.3528 9.0128 50.0004C9.0128 36.648 9.0652 35.0692 9.3036 29.7944C9.5256 24.9196 10.3436 22.2744 11.0236 20.5092C11.9324 18.1748 13.0148 16.5092 14.7636 14.758C16.5124 13.0068 18.1764 11.9228 20.5148 11.018C22.2748 10.3316 24.9252 9.5196 29.8 9.298C35.0704 9.0556 36.6536 9.0072 50 9.0072C63.3464 9.0072 64.9312 9.0596 70.206 9.298C75.0808 9.52 77.726 10.338 79.4912 11.018C81.8256 11.9228 83.4912 13.0092 85.2424 14.758C86.9936 16.5068 88.0736 18.1748 88.9824 20.5092C89.6688 22.2692 90.4808 24.9196 90.7024 29.7944C90.9448 35.0692 90.9932 36.648 90.9932 50.0004C90.9932 63.3528 90.9448 64.9316 90.7024 70.2064C90.4804 75.0812 89.6644 77.7308 88.9824 79.4916C88.0736 81.826 86.9912 83.4916 85.2424 85.2388C83.4936 86.986 81.8256 88.07 79.4912 88.9788C77.7312 89.6652 75.0808 90.4772 70.206 90.6988C64.9356 90.9412 63.3524 90.9896 50 90.9896C36.6476 90.9896 35.0688 90.9412 29.8 90.6988V90.6988ZM29.386 0.3028C24.0632 0.5452 20.426 1.3892 17.2496 2.6252C13.96 3.9016 11.1752 5.614 8.3924 8.3924C5.6096 11.1708 3.9016 13.96 2.6252 17.2496C1.3892 20.428 0.5452 24.0632 0.3028 29.386C0.0564 34.7172 0 36.4216 0 50C0 63.5784 0.0564 65.2828 0.3028 70.614C0.5452 75.9372 1.3892 79.572 2.6252 82.7504C3.9016 86.038 5.61 88.8304 8.3924 91.6076C11.1748 94.3848 13.96 96.0948 17.2496 97.3748C20.432 98.6108 24.0632 99.4548 29.386 99.6972C34.72 99.9396 36.4216 100 50 100C63.5784 100 65.2828 99.9436 70.614 99.6972C75.9372 99.4548 79.572 98.6108 82.7504 97.3748C86.038 96.0948 88.8248 94.386 91.6076 91.6076C94.3904 88.8292 96.0948 86.038 97.3748 82.7504C98.6108 79.572 99.4588 75.9368 99.6972 70.614C99.9396 65.2788 99.996 63.5784 99.996 50C99.996 36.4216 99.9396 34.7172 99.6972 29.386C99.4548 24.0628 98.6108 20.426 97.3748 17.2496C96.0948 13.962 94.386 11.1752 91.6076 8.3924C88.8292 5.6096 86.038 3.9016 82.7544 2.6252C79.572 1.3892 75.9368 0.5412 70.618 0.3028C65.2868 0.0604 63.5824 0 50.004 0C36.4256 0 34.72 0.0564 29.386 0.3028Z" fill="url(#paint0_radial)" />
    <path d="M33.336 50C33.336 40.7956 40.7956 33.332 50 33.332C59.2044 33.332 66.668 40.7956 66.668 50C66.668 59.2044 59.2044 66.668 50 66.668C40.7956 66.668 33.336 59.2044 33.336 50ZM24.3256 50C24.3256 64.18 35.82 75.6744 50 75.6744C64.18 75.6744 75.6744 64.18 75.6744 50C75.6744 35.82 64.18 24.3256 50 24.3256C35.82 24.3256 24.3256 35.82 24.3256 50ZM70.6908 23.3076C70.6903 24.4943 71.0418 25.6545 71.7006 26.6414C72.3595 27.6284 73.2963 28.3978 74.3925 28.8524C75.4887 29.3069 76.695 29.4262 77.859 29.1952C79.023 28.9641 80.0923 28.3931 80.9317 27.5543C81.7712 26.7156 82.3431 25.6467 82.575 24.4829C82.807 23.3191 82.6887 22.1127 82.235 21.0161C81.7813 19.9196 81.0126 18.9822 80.0262 18.3225C79.0398 17.6628 77.8799 17.3105 76.6932 17.31H76.6908C75.1001 17.3107 73.5748 17.9428 72.4498 19.0673C71.3248 20.1919 70.6922 21.7169 70.6908 23.3076V23.3076ZM29.8 90.6988C24.9252 90.4768 22.2756 89.6648 20.5148 88.9788C18.1804 88.07 16.5148 86.9876 14.7636 85.2388C13.0124 83.49 11.9284 81.826 11.0236 79.4916C10.3372 77.7316 9.5252 75.0812 9.3036 70.2064C9.0612 64.936 9.0128 63.3528 9.0128 50.0004C9.0128 36.648 9.0652 35.0692 9.3036 29.7944C9.5256 24.9196 10.3436 22.2744 11.0236 20.5092C11.9324 18.1748 13.0148 16.5092 14.7636 14.758C16.5124 13.0068 18.1764 11.9228 20.5148 11.018C22.2748 10.3316 24.9252 9.5196 29.8 9.298C35.0704 9.0556 36.6536 9.0072 50 9.0072C63.3464 9.0072 64.9312 9.0596 70.206 9.298C75.0808 9.52 77.726 10.338 79.4912 11.018C81.8256 11.9228 83.4912 13.0092 85.2424 14.758C86.9936 16.5068 88.0736 18.1748 88.9824 20.5092C89.6688 22.2692 90.4808 24.9196 90.7024 29.7944C90.9448 35.0692 90.9932 36.648 90.9932 50.0004C90.9932 63.3528 90.9448 64.9316 90.7024 70.2064C90.4804 75.0812 89.6644 77.7308 88.9824 79.4916C88.0736 81.826 86.9912 83.4916 85.2424 85.2388C83.4936 86.986 81.8256 88.07 79.4912 88.9788C77.7312 89.6652 75.0808 90.4772 70.206 90.6988C64.9356 90.9412 63.3524 90.9896 50 90.9896C36.6476 90.9896 35.0688 90.9412 29.8 90.6988V90.6988ZM29.386 0.3028C24.0632 0.5452 20.426 1.3892 17.2496 2.6252C13.96 3.9016 11.1752 5.614 8.3924 8.3924C5.6096 11.1708 3.9016 13.96 2.6252 17.2496C1.3892 20.428 0.5452 24.0632 0.3028 29.386C0.0564 34.7172 0 36.4216 0 50C0 63.5784 0.0564 65.2828 0.3028 70.614C0.5452 75.9372 1.3892 79.572 2.6252 82.7504C3.9016 86.038 5.61 88.8304 8.3924 91.6076C11.1748 94.3848 13.96 96.0948 17.2496 97.3748C20.432 98.6108 24.0632 99.4548 29.386 99.6972C34.72 99.9396 36.4216 100 50 100C63.5784 100 65.2828 99.9436 70.614 99.6972C75.9372 99.4548 79.572 98.6108 82.7504 97.3748C86.038 96.0948 88.8248 94.386 91.6076 91.6076C94.3904 88.8292 96.0948 86.038 97.3748 82.7504C98.6108 79.572 99.4588 75.9368 99.6972 70.614C99.9396 65.2788 99.996 63.5784 99.996 50C99.996 36.4216 99.9396 34.7172 99.6972 29.386C99.4548 24.0628 98.6108 20.426 97.3748 17.2496C96.0948 13.962 94.386 11.1752 91.6076 8.3924C88.8292 5.6096 86.038 3.9016 82.7544 2.6252C79.572 1.3892 75.9368 0.5412 70.618 0.3028C65.2868 0.0604 63.5824 0 50.004 0C36.4256 0 34.72 0.0564 29.386 0.3028Z" fill="url(#paint1_radial)" />
    <defs>
        <radialGradient id="paint0_radial" cx="0" cy="0" r="1" gradientUnits="userSpaceOnUse" gradientTransform="translate(13.2856 100.472) scale(130.542)">
            <stop offset="0.09" stop-color="#FA8F21" />
            <stop offset="0.78" stop-color="#D82D7E" />
        </radialGradient>
        <radialGradient id="paint1_radial" cx="0" cy="0" r="1" gradientUnits="userSpaceOnUse" gradientTransform="translate(60.6456 104.952) scale(102.885)">
            <stop offset="0.64" stop-color="#8C3AAA" stop-opacity="0" />
            <stop offset="1" stop-color="#8C3AAA" />
        </radialGradient>
    </defs>
</svg>