<svg width="100" height="100" viewBox="0 0 100 100" fill="none" xmlns="http://www.w3.org/2000/svg">
    <g clip-path="url(#clip0)">
        <path d="M50.0001 100C77.6139 100 99.9992 77.6149 99.9992 50.0011C99.9992 22.3874 77.6139 0.0019989 50.0001 0.0019989C22.3864 0.0019989 0.00100708 22.3874 0.00100708 50.0011C0.00100708 77.6149 22.3864 100 50.0001 100Z" fill="#CB2027" />
        <path d="M54.0357 66.9549C50.2558 66.6625 48.6676 64.7881 45.7031 62.9886C44.0739 71.5369 42.0828 79.7314 36.1852 84.0122C34.3625 71.0922 38.8572 61.3879 40.9446 51.0874C37.3866 45.098 41.3724 33.0425 48.877 36.0131C58.1134 39.6656 40.8804 58.2836 52.4493 60.6089C64.527 63.0368 69.4576 39.6522 61.9673 32.046C51.1453 21.0645 30.4667 31.7965 33.0095 47.5169C33.629 51.3601 37.6005 52.5268 34.596 57.8299C27.6698 56.296 25.6039 50.8333 25.8695 43.5507C26.2982 31.6298 36.5809 23.2829 46.8948 22.1278C59.9387 20.6679 72.1813 26.9176 73.8712 39.187C75.7723 53.0348 67.9825 68.0315 54.0357 66.9549Z" fill="#F1F2F2" />
    </g>
    <defs>
        <clipPath id="clip0">
            <rect width="100" height="100" fill="white" />
        </clipPath>
    </defs>
</svg>