<svg width="100" height="100" viewBox="0 0 100 100" fill="none" xmlns="http://www.w3.org/2000/svg">
    <g clip-path="url(#clip0)">
        <path d="M97.7336 18.5125C96.1627 19.2091 94.5475 19.7972 92.8971 20.2747C94.851 18.065 96.3406 15.465 97.25 12.6199C97.4539 11.9822 97.2426 11.2842 96.7184 10.867C96.1947 10.4496 95.4674 10.3996 94.891 10.7412C91.3862 12.8199 87.6049 14.3138 83.6401 15.1873C79.6462 11.2847 74.2218 9.06366 68.614 9.06366C56.7769 9.06366 47.1467 18.6937 47.1467 30.5304C47.1467 31.4626 47.2057 32.3897 47.3225 33.304C32.6338 32.0144 18.978 24.7947 9.60074 13.2918C9.26656 12.8818 8.75172 12.6607 8.22457 12.7031C7.69723 12.7443 7.22321 13.0418 6.9568 13.499C5.05486 16.7625 4.04939 20.4951 4.04939 24.2929C4.04939 29.4655 5.89606 34.3731 9.15835 38.2081C8.16637 37.8645 7.20387 37.4352 6.28512 36.9253C5.79196 36.6507 5.19001 36.655 4.69997 36.9358C4.20974 37.2169 3.90232 37.7335 3.88924 38.2983C3.88689 38.3934 3.88689 38.4885 3.88689 38.585C3.88689 46.3059 8.04234 53.2572 14.3956 57.0459C13.8497 56.9914 13.3044 56.9123 12.7624 56.8088C12.2037 56.7019 11.6292 56.8978 11.2525 57.324C10.8751 57.7498 10.7501 58.3433 10.9242 58.8853C13.2757 66.2273 19.3302 71.6275 26.6495 73.274C20.5788 77.0763 13.6367 79.0679 6.34899 79.0679C4.82829 79.0679 3.299 78.9786 1.80233 78.8015C1.05878 78.713 0.347843 79.1521 0.0945235 79.8593C-0.158796 80.5667 0.109758 81.3554 0.742177 81.7608C10.1044 87.7637 20.9298 90.9366 32.0475 90.9366C53.9035 90.9366 67.5761 80.6302 75.197 71.9841C84.7002 61.2031 90.1504 46.9332 90.1504 32.8337C90.1504 32.2446 90.1414 31.6499 90.1233 31.0569C93.8727 28.2321 97.1006 24.8134 99.7273 20.8841C100.126 20.2874 100.083 19.4986 99.6209 18.9494C99.1598 18.3992 98.3902 18.2214 97.7336 18.5125Z" fill="#00ACEE" />
    </g>
    <defs>
        <clipPath id="clip0">
            <rect width="100" height="100" fill="white" />
        </clipPath>
    </defs>
</svg>