<svg width="470" height="512" viewBox="0 0 470 512" fill="none" xmlns="http://www.w3.org/2000/svg">
    <g clip-path="url(#clip0)">
        <path d="M464.291 129.408L240.291 1.40799C237.006 -0.469005 232.995 -0.469005 229.71 1.40799L5.71 129.408C2.382 131.307 0.334 134.848 0.334 138.667V373.334C0.334 377.153 2.382 380.694 5.71 382.593L229.71 510.593C231.353 511.532 233.166 512.001 235.001 512.001C236.836 512.001 238.649 511.532 240.292 510.593L464.292 382.593C467.62 380.694 469.668 377.153 469.668 373.334V138.667C469.667 134.848 467.619 131.307 464.291 129.408Z" fill="#FF8B60" />
        <g clip-path="url(#clip1)">
            <path d="M475.1 177.881L475.102 177.882C476.886 179.388 477.724 181.74 477.302 184.031L477.301 184.032L435.712 409.293C435.289 411.584 433.668 413.481 431.464 414.251L431.461 414.252L193.752 497.423C192.657 497.807 191.523 497.886 190.423 497.683C189.323 497.48 188.292 497.001 187.405 496.251L-4.93291 333.682L-4.93479 333.681C-6.71891 332.174 -7.55623 329.823 -7.13337 327.532L34.456 102.27C34.8788 99.9795 36.5006 98.0822 38.7051 97.3119L38.7073 97.3114L276.415 14.1398C276.415 14.1398 276.416 14.14 276.416 14.1399C278.597 13.3769 280.997 13.8201 282.762 15.3116C282.762 15.3116 282.763 15.3118 282.763 15.3118L475.1 177.881Z" stroke="white" stroke-width="8" />
        </g>
    </g>
    <path d="M346.688 281.551C346.688 332.918 290.865 374.557 221.999 374.557C178.535 374.557 140.27 357.972 117.955 332.822C113.41 323.175 110.937 312.797 110.937 301.991C110.937 250.623 166.761 208.986 235.626 208.986C279.09 208.986 317.355 225.57 339.67 250.719C344.214 260.366 346.688 270.744 346.688 281.551Z" fill="#FBA194" />
    <path d="M360.315 301.991C360.315 353.358 304.491 394.997 235.626 394.997C181.247 394.997 135.003 369.037 117.955 332.822C117.315 331.46 116.708 330.084 116.157 328.686C112.763 320.231 110.937 311.271 110.937 301.991C110.937 250.623 166.761 208.986 235.626 208.986C279.09 208.986 317.355 225.57 339.67 250.719C340.283 251.414 340.89 252.108 341.47 252.817C353.419 267.078 360.315 283.935 360.315 301.991Z" fill="#ED8074" />
    <path d="M346.688 279.506C346.688 330.873 290.865 372.512 221.999 372.512C177.343 372.512 138.171 355.007 116.157 328.686C114.923 325.621 113.901 322.48 113.097 319.284C111.68 313.683 110.937 307.899 110.937 301.991C110.937 250.623 166.761 208.986 235.626 208.986C277.843 208.986 315.154 224.628 337.715 248.58C338.375 249.28 339.029 249.997 339.67 250.719C340.283 251.414 340.89 252.109 341.47 252.817C344.861 261.272 346.688 270.233 346.688 279.506Z" fill="#F58A82" />
    <path d="M339.874 265.879C339.874 317.246 284.05 358.885 215.186 358.885C172.961 358.885 135.643 343.234 113.097 319.284C111.68 313.683 110.937 307.899 110.937 301.991C110.937 250.623 166.761 208.986 235.626 208.986C277.843 208.986 315.154 224.628 337.715 248.58C339.132 254.187 339.874 259.972 339.874 265.879Z" fill="#FAA399" />
    <path d="M190.201 412.031H165.435C159.373 412.031 154.223 407.593 153.328 401.597L148.071 366.38L205.987 380.007L202.27 401.843C201.268 407.726 196.171 412.031 190.201 412.031Z" fill="#ED8074" />
    <path d="M305.817 412.031H280.998C275.052 412.031 269.968 407.759 268.94 401.904L263.902 373.193L323.181 366.38L317.925 401.597C317.03 407.593 311.879 412.031 305.817 412.031Z" fill="#ED8074" />
    <path d="M353.969 277.897C358.28 286.055 365.827 293.853 375.67 294.066C384.572 294.26 392.817 288.089 392.516 278.714C392.414 275.632 391.309 269.286 388.037 267.786C385.602 266.67 386.759 269.977 387.552 271.096C388.834 272.904 391.014 274.226 393.053 274.968C402.091 278.255 410.475 271.481 410.984 262.338C411.278 257.09 419.324 258.582 419.034 263.779C418.375 275.573 407.908 284.745 396.171 283.891C390.622 283.487 385.202 280.94 381.582 276.674C377.671 272.065 376.832 264.505 382.328 260.66C387.03 257.372 392.632 260.129 395.823 264.081C399.311 268.406 400.852 274.651 400.652 280.113C400.22 291.896 391.021 300.34 379.691 301.975C365.821 303.977 353.437 294.26 347.259 282.57C344.832 277.978 351.512 273.248 353.969 277.897Z" fill="#ED8074" />
    <path d="M157.27 272.693C157.27 275.138 155.287 277.122 152.841 277.122C150.395 277.122 148.412 275.138 148.412 272.693C148.412 270.247 150.395 268.264 152.841 268.264C155.287 268.264 157.27 270.247 157.27 272.693Z" fill="#4E302D" />
    <path d="M152.841 266.9C156.039 266.9 158.633 269.494 158.633 272.693C158.633 273.359 158.514 273.995 158.308 274.591C158.942 273.662 159.314 272.539 159.314 271.329C159.314 268.131 156.721 265.538 153.522 265.538C150.989 265.538 148.842 267.168 148.056 269.431C149.098 267.903 150.852 266.9 152.841 266.9Z" fill="#ED8074" />
    <path d="M262.88 228.745C245.039 223.864 226.213 223.864 208.372 228.745C207.593 225.896 206.813 223.05 206.034 220.201C225.406 214.902 245.845 214.902 265.218 220.201C264.438 223.048 263.66 225.896 262.88 228.745Z" fill="#4E302D" />
    <path d="M187.629 209.804C173.309 181.798 139.797 191.403 138.507 191.785C149.645 193.94 164.429 200.339 169.33 218.828C173.35 233.995 175.788 243.03 176.28 248.504L197.387 246.69C204.942 243.282 202.232 238.361 187.629 209.804Z" fill="#ED8074" />
    <path d="M169.33 218.828C164.429 200.339 149.645 193.94 138.507 191.785C138.481 191.792 138.464 191.798 138.464 191.798L153.972 250.423L176.28 248.504C175.788 243.03 173.35 233.995 169.33 218.828Z" fill="#FCA192" />
    <path d="M132.059 265.538V326.18L109.329 330.316L107.742 330.601C100.887 331.848 94.5845 326.581 94.5845 319.625V272.093C94.5845 265.137 100.887 259.869 107.742 261.116L109.329 261.402L132.059 265.538Z" fill="#ED8074" />
    <path d="M132.059 265.538V326.18L109.329 330.316C104.805 328.938 101.398 324.742 101.398 319.625V272.093C101.398 266.976 104.805 262.78 109.329 261.402L132.059 265.538Z" fill="#FAA399" />
    <path d="M324.269 250.117C322.453 237.454 280.151 217.572 279.009 233.085C278.16 244.622 326.348 264.612 324.269 250.117Z" fill="#FBB5AD" />
    <path d="M323.985 254.201L331.763 252.439L323.985 250.676L322.224 242.9L320.462 250.676L312.685 252.439L320.462 254.201L322.224 261.978L323.985 254.201Z" fill="white" />
    <path d="M309.351 255.92L312.685 255.164L309.351 254.409L308.597 251.077L307.841 254.409L304.508 255.164L307.841 255.92L308.597 259.252L309.351 255.92Z" fill="white" />
    <path d="M318.89 239.567L322.223 238.812L318.89 238.057L318.135 234.724L317.38 238.057L314.047 238.812L317.38 239.567L318.135 242.9L318.89 239.567Z" fill="white" />
    <path d="M120.447 426.204C120.519 432.938 111.908 438.49 101.213 438.604C90.5186 438.717 81.7912 433.351 81.7198 426.617C81.6479 419.883 90.259 414.333 100.954 414.219C111.648 414.105 120.376 419.472 120.447 426.204Z" fill="#F7931E" />
    <path d="M120.417 423.336C120.489 430.07 111.877 435.62 101.183 435.734C90.4883 435.848 81.7608 430.481 81.6889 423.749C81.6175 417.015 90.2287 411.463 100.923 411.351C111.617 411.236 120.345 416.602 120.417 423.336Z" fill="#F9BE3D" />
    <path d="M152.104 415.533C155.804 421.16 151.56 430.484 142.625 436.362C133.689 442.239 123.446 442.442 119.746 436.817C116.045 431.19 120.289 421.866 129.224 415.988C138.16 410.111 148.403 409.908 152.104 415.533Z" fill="#F7931E" />
    <path d="M150.527 413.137C154.227 418.763 149.984 428.087 141.048 433.965C132.113 439.842 121.869 440.045 118.169 434.42C114.468 428.793 118.712 419.469 127.648 413.592C136.583 407.714 146.826 407.511 150.527 413.137Z" fill="#F9BE3D" />
    <path d="M350.943 431.106C355.554 436.014 365.61 434.055 373.405 426.732C381.199 419.407 383.78 409.493 379.168 404.586C374.557 399.677 364.5 401.636 356.707 408.96C348.912 416.283 346.332 426.199 350.943 431.106Z" fill="#F7931E" />
    <path d="M348.979 429.015C353.59 433.922 363.646 431.964 371.441 424.641C379.234 417.316 381.815 407.402 377.203 402.494C372.592 397.587 362.536 399.545 354.742 406.87C346.948 414.193 344.368 424.108 348.979 429.015Z" fill="#F9BE3D" />
    <path d="M365.326 426.596C365.866 433.308 374.946 438.054 385.606 437.198C396.267 436.34 404.472 430.203 403.931 423.491C403.392 416.779 394.312 412.033 383.652 412.89C372.991 413.748 364.786 419.884 365.326 426.596Z" fill="#F7931E" />
    <path d="M365.096 423.736C365.637 430.448 374.716 435.194 385.376 434.338C396.038 433.48 404.242 427.343 403.702 420.631C403.162 413.919 394.082 409.173 383.422 410.031C372.762 410.888 364.556 417.024 365.096 423.736Z" fill="#F9BE3D" />
    <path d="M89.7621 422.052C90.7981 428.705 83.0707 435.434 72.5031 437.078C61.9356 438.724 52.5288 434.664 51.4928 428.011C50.4574 421.356 58.1842 414.629 68.7517 412.983C79.3193 411.339 88.7261 415.398 89.7621 422.052Z" fill="#F7931E" />
    <path d="M89.3207 419.217C90.3567 425.871 82.6299 432.599 72.0617 434.244C61.4941 435.89 52.0879 431.83 51.0519 425.175C50.0159 418.522 57.7427 411.794 68.3103 410.149C78.8779 408.503 88.2847 412.564 89.3207 419.217Z" fill="#F9BE3D" />
    <path d="M255.727 426.14C256.763 432.795 249.035 439.522 238.468 441.168C227.9 442.812 218.494 438.752 217.458 432.098C216.422 425.445 224.149 418.717 234.716 417.072C245.285 415.427 254.691 419.487 255.727 426.14Z" fill="#F7931E" />
    <path d="M255.287 423.306C256.322 429.959 248.595 436.686 238.027 438.332C227.459 439.978 218.053 435.918 217.017 429.263C215.981 422.61 223.708 415.883 234.276 414.237C244.843 412.591 254.25 416.652 255.287 423.306Z" fill="#F9BE3D" />
    <path d="M295.627 149.915C291.443 155.192 281.258 154.084 272.877 147.44C264.496 140.797 261.092 131.132 265.276 125.855C269.459 120.579 279.644 121.687 288.025 128.33C296.406 134.974 299.809 144.637 295.627 149.915Z" fill="#F7931E" />
    <path d="M297.408 147.666C293.226 152.943 283.04 151.835 274.659 145.192C266.277 138.548 262.875 128.884 267.057 123.608C271.241 118.33 281.425 119.438 289.807 126.082C298.188 132.726 301.592 142.389 297.408 147.666Z" fill="#F9BE3D" />
    <path d="M357.404 428.022C355.883 434.582 346.204 437.942 335.785 435.526C325.366 433.111 318.154 425.836 319.674 419.274C321.195 412.715 330.874 409.356 341.293 411.77C351.712 414.186 358.924 421.462 357.404 428.022Z" fill="#F7931E" />
    <path d="M358.051 425.227C356.53 431.787 346.852 435.148 336.433 432.732C326.015 430.316 318.801 423.04 320.322 416.48C321.843 409.92 331.522 406.56 341.941 408.976C352.36 411.391 359.572 418.667 358.051 425.227Z" fill="#F9BE3D" />
    <path d="M259.18 197.483C261.125 207.154 254.861 216.571 245.189 218.515C235.518 220.46 226.101 214.196 224.156 204.524C222.212 194.853 228.476 185.436 238.148 183.491C247.818 181.547 257.236 187.811 259.18 197.483Z" fill="#F7931E" />
    <path d="M255.783 198.166C257.349 205.961 252.301 213.55 244.506 215.118C236.712 216.684 229.122 211.636 227.555 203.841C225.987 196.046 231.036 188.457 238.83 186.889C246.626 185.322 254.215 190.37 255.783 198.166Z" fill="#F9BE3D" />
    <path d="M237.875 207.454C238.929 207.873 240.709 208.19 242.286 207.872C244.58 207.411 245.423 206.048 245.135 204.612C244.832 203.107 243.77 202.464 241.268 202.071C237.927 201.589 236.111 200.163 235.693 198.084C235.132 195.289 236.928 192.541 240.656 191.791C242.411 191.438 244.053 191.631 245.138 192.008L244.809 194.46C244.043 194.168 242.673 193.845 241.06 194.17C239.195 194.544 238.372 195.83 238.631 197.12C238.921 198.553 240.088 198.989 242.521 199.396C245.762 199.938 247.605 201.134 248.124 203.714C248.737 206.76 246.803 209.387 242.681 210.216C240.783 210.597 238.932 210.484 237.569 210.013L237.875 207.454Z" fill="#F7931E" />
    <path d="M241.257 193.416L239.488 193.772L238.658 189.643L240.427 189.288L241.257 193.416Z" fill="#F7931E" />
    <path d="M245.052 212.288L243.283 212.645L242.452 208.516L244.221 208.161L245.052 212.288Z" fill="#F7931E" />
    <path d="M233.919 157.124C232.632 166.905 223.662 173.791 213.88 172.505C204.098 171.218 197.213 162.246 198.499 152.465C199.786 142.684 208.759 135.798 218.539 137.085C228.319 138.371 235.206 147.343 233.919 157.124Z" fill="#F7931E" />
    <path d="M230.483 156.672C229.446 164.555 222.214 170.105 214.332 169.068C206.448 168.031 200.898 160.8 201.936 152.917C202.973 145.034 210.203 139.484 218.087 140.521C225.969 141.558 231.519 148.789 230.483 156.672Z" fill="#F9BE3D" />
    <path d="M210.535 159.672C211.397 160.41 212.978 161.284 214.573 161.494C216.893 161.799 218.132 160.782 218.323 159.33C218.523 157.807 217.726 156.856 215.486 155.675C212.479 154.139 211.223 152.202 211.5 150.101C211.871 147.273 214.46 145.254 218.229 145.749C220.005 145.983 221.496 146.696 222.399 147.403L221.296 149.618C220.666 149.094 219.474 148.345 217.843 148.131C215.957 147.883 214.762 148.833 214.591 150.138C214.401 151.587 215.365 152.378 217.536 153.549C220.427 155.109 221.786 156.837 221.442 159.446C221.037 162.527 218.358 164.388 214.19 163.839C212.27 163.587 210.555 162.881 209.418 161.996L210.535 159.672Z" fill="#F7931E" />
    <path d="M218.273 147.482L216.484 147.246L217.033 143.071L218.823 143.306L218.273 147.482Z" fill="#F7931E" />
    <path d="M215.763 166.568L213.973 166.332L214.523 162.157L216.312 162.392L215.763 166.568Z" fill="#F7931E" />
    <path d="M250.237 93.7891C246.988 103.104 236.805 108.022 227.489 104.774C218.175 101.526 213.256 91.341 216.504 82.0257C219.753 72.711 229.938 67.793 239.252 71.0413C248.567 74.2896 253.486 84.4739 250.237 93.7891Z" fill="#F7931E" />
    <path d="M246.965 92.6477C244.346 100.156 236.139 104.119 228.631 101.501C221.122 98.8833 217.159 90.6744 219.777 83.167C222.395 75.6596 230.602 71.6955 238.111 74.3137C245.619 76.9315 249.582 85.1398 246.965 92.6477Z" fill="#F9BE3D" />
    <path d="M226.823 91.5291C227.516 92.4268 228.887 93.6046 230.407 94.1344C232.616 94.9048 234.035 94.1607 234.518 92.7777C235.023 91.3276 234.437 90.2341 232.483 88.6225C229.852 86.5073 229.016 84.3552 229.713 82.3541C230.652 79.6613 233.597 78.2101 237.187 79.4624C238.878 80.0518 240.194 81.0529 240.935 81.9291L239.404 83.8731C238.893 83.2318 237.878 82.2564 236.325 81.7148C234.529 81.0884 233.166 81.7764 232.732 83.019C232.251 84.3993 233.036 85.3695 234.922 86.9575C237.437 89.0732 238.415 91.0408 237.549 93.5256C236.525 96.4603 233.524 97.7374 229.554 96.3529C227.725 95.7151 226.19 94.6756 225.257 93.5774L226.823 91.5291Z" fill="#F7931E" />
    <path d="M236.877 81.167L235.174 80.5724L236.561 76.5964L238.264 77.191L236.877 81.167Z" fill="#F7931E" />
    <path d="M230.539 99.3437L228.835 98.7491L230.223 94.7733L231.926 95.3673L230.539 99.3437Z" fill="#F7931E" />
    <path d="M263.864 107.416C260.616 116.731 250.432 121.649 241.116 118.401C231.802 115.152 226.883 104.968 230.131 95.6531C233.38 86.3382 243.565 81.4203 252.879 84.6682C262.195 87.9164 267.112 98.1012 263.864 107.416Z" fill="#F7931E" />
    <path d="M260.592 106.275C257.973 113.783 249.764 117.747 242.257 115.128C234.751 112.511 230.786 104.302 233.405 96.7943C236.022 89.2869 244.231 85.3228 251.739 87.941C259.246 90.5588 263.21 98.7672 260.592 106.275Z" fill="#F9BE3D" />
    <path d="M240.45 105.156C241.145 106.054 242.515 107.232 244.033 107.761C246.243 108.532 247.662 107.788 248.145 106.405C248.65 104.955 248.064 103.861 246.111 102.25C243.48 100.134 242.643 97.9824 243.34 95.9814C244.279 93.2881 247.224 91.8374 250.814 93.0892C252.505 93.6792 253.821 94.6797 254.562 95.5563L253.031 97.5005C252.52 96.8591 251.505 95.8837 249.952 95.3421C248.156 94.7157 246.793 95.4042 246.36 96.6463C245.879 98.0267 246.663 98.9969 248.549 100.585C251.063 102.7 252.042 104.668 251.176 107.153C250.152 110.088 247.151 111.365 243.181 109.98C241.353 109.343 239.818 108.303 238.885 107.205L240.45 105.156Z" fill="#F7931E" />
    <path d="M250.506 94.7942L248.801 94.1996L250.188 90.2238L251.893 90.8178L250.506 94.7942Z" fill="#F7931E" />
    <path d="M244.166 112.971L242.463 112.377L243.85 108.401L245.553 108.995L244.166 112.971Z" fill="#F7931E" />
    <path d="M250.898 190.33L253.993 188.881L250.576 188.855L249.126 185.76L249.1 189.177L246.005 190.626L249.423 190.653L250.872 193.748L250.898 190.33Z" fill="white" />
    <path d="M221.862 145.056L225.264 145.386L222.335 143.622L222.665 140.221L220.902 143.149L217.5 142.819L220.427 144.582L220.099 147.984L221.862 145.056Z" fill="white" />
    <path d="M148.557 418.077L151.883 417.292L148.543 416.567L147.759 413.241L147.034 416.58L143.707 417.364L147.047 418.089L147.832 421.416L148.557 418.077Z" fill="white" />
    <path d="M372.044 405.131L375.37 404.346L372.029 403.621L371.245 400.293L370.52 403.634L367.193 404.418L370.534 405.145L371.318 408.47L372.044 405.131Z" fill="white" />
    <path d="M252.437 91.9489L255.795 92.5779L253.035 90.563L253.664 87.2036L251.65 89.9637L248.29 89.3347L251.051 91.3497L250.422 94.709L252.437 91.9489Z" fill="white" />
    <path d="M239.491 78.3216L242.849 78.9506L240.09 76.9356L240.719 73.5763L238.704 76.3364L235.345 75.7074L238.105 77.7224L237.476 81.0817L239.491 78.3216Z" fill="white" />
    <defs>
        <clipPath id="clip0">
            <rect width="470" height="512" fill="white" />
        </clipPath>
        <clipPath id="clip1">
            <rect width="470" height="512" fill="white" />
        </clipPath>
    </defs>
</svg>