<svg width="470" height="512" viewBox="0 0 470 512" fill="none" xmlns="http://www.w3.org/2000/svg">
    <g clip-path="url(#clip0)">
        <path d="M464.291 129.408L240.291 1.40799C237.006 -0.469005 232.995 -0.469005 229.71 1.40799L5.71 129.408C2.382 131.307 0.334 134.848 0.334 138.667V373.334C0.334 377.153 2.382 380.694 5.71 382.593L229.71 510.593C231.353 511.532 233.166 512.001 235.001 512.001C236.836 512.001 238.649 511.532 240.292 510.593L464.292 382.593C467.62 380.694 469.668 377.153 469.668 373.334V138.667C469.667 134.848 467.619 131.307 464.291 129.408Z" fill="#FF8B60" />
        <g clip-path="url(#clip1)">
            <path d="M475.1 177.881L475.102 177.882C476.886 179.388 477.724 181.74 477.302 184.031L477.301 184.032L435.712 409.293C435.289 411.584 433.668 413.481 431.464 414.251L431.461 414.252L193.752 497.423C192.657 497.807 191.523 497.886 190.423 497.683C189.323 497.48 188.292 497.001 187.405 496.251L-4.93291 333.682L-4.93479 333.681C-6.71891 332.174 -7.55623 329.823 -7.13337 327.532L34.456 102.27C34.8788 99.9795 36.5006 98.0822 38.7051 97.3119L38.7073 97.3114L276.415 14.1398C276.415 14.1398 276.416 14.14 276.416 14.1399C278.597 13.3769 280.997 13.8201 282.762 15.3116C282.762 15.3116 282.763 15.3118 282.763 15.3118L475.1 177.881Z" stroke="white" stroke-width="8" />
        </g>
        <g clip-path="url(#clip2)">
            <path d="M223.192 98.4971C191.653 100.77 160.399 113.177 135.87 133.255C127.062 140.358 113.139 155.038 107.93 162.426L103.953 168.203L109.162 169.15L114.276 170.097L119.674 163.373C144.11 133.066 178.299 113.935 217.13 108.82C228.022 107.305 250.941 108.063 262.496 110.146C272.724 112.04 290.719 117.912 299.053 122.08C347.355 146.325 377.757 190.27 382.492 242.928C389.216 317.18 338.926 384.708 265.242 400.524C253.214 403.081 229.442 404.123 217.225 402.513C176.121 397.115 138.711 374.858 114.939 341.71C104.142 326.556 94.5764 305.152 90.5039 286.873C89.9357 284.032 88.6097 280.528 87.6627 279.107C86.6209 277.781 83.969 273.141 81.696 268.879L77.6235 261.207L78.0023 266.227C81.696 317.654 109.162 362.925 153.107 390.201C183.793 409.143 223.381 417.004 260.128 411.416C291.571 406.586 322.825 390.58 346.124 367.565C376.147 337.827 392.721 298.049 392.721 255.809C392.721 200.783 364.308 149.829 317.616 121.227C297.349 108.82 272.345 100.486 250.657 98.8759C236.545 97.8341 232.947 97.7394 223.192 98.4971Z" fill="#185B2F" />
            <path d="M239.292 114.882C238.724 115.639 237.398 123.406 236.451 132.214C234.935 146.136 234.841 148.314 236.072 149.545C238.44 152.008 240.618 149.545 241.376 143.389C241.754 140.358 242.323 137.707 242.512 137.423C242.796 137.233 244.122 137.328 245.448 137.612C247.437 138.085 248.668 139.696 251.131 145.283C253.972 151.439 254.73 152.387 256.813 152.387C260.033 152.387 259.939 149.261 256.624 142.537L254.161 137.423L257.097 133.918C261.359 129.183 261.359 123.5 257.192 118.86C255.393 116.776 253.214 115.355 251.32 115.071C241.754 113.651 240.429 113.556 239.292 114.882ZM252.835 122.743C254.824 124.637 254.919 126.72 252.93 129.467C251.794 131.077 250.562 131.551 247.248 131.551C243.27 131.551 243.08 131.456 243.08 128.804C243.08 127.289 243.365 124.732 243.649 123.027C244.312 120.185 244.406 120.091 247.721 120.659C249.615 121.038 251.888 121.985 252.835 122.743Z" fill="#185B2F" />
            <path d="M196.862 119.428C189.475 121.038 183.414 129.467 183.414 137.801C183.508 144.715 190.612 153.618 197.147 154.849C206.428 156.554 214.857 152.765 218.267 145.378C222.718 135.907 219.593 125.584 210.879 121.133C206.333 118.765 201.787 118.197 196.862 119.428ZM208.701 127.005C216.278 132.214 215.804 142.821 207.754 147.651C201.503 151.439 194.116 148.788 190.99 141.684C188.623 136.381 189.759 131.929 194.4 127.857C198.567 124.163 203.966 123.879 208.701 127.005Z" fill="#185B2F" />
            <path d="M286.647 130.225C271.493 136.76 271.683 157.785 286.836 164.225C290.53 165.741 294.886 166.025 297.538 165.078C298.959 164.509 304.641 154.47 304.641 152.481C304.641 151.25 301.516 149.166 296.875 147.272C293.75 145.946 293.276 145.946 291.95 147.272C289.772 149.451 290.056 150.303 293.75 152.481C296.97 154.375 296.97 154.565 295.644 157.122C294.507 159.206 293.844 159.584 291.666 159.206C278.88 156.933 277.933 138.938 290.34 135.339C295.265 133.918 298.864 135.244 303.315 139.885C305.967 142.632 307.861 143.863 308.808 143.579C311.081 142.632 310.608 138.654 307.767 135.244C302.747 129.372 293.655 127.194 286.647 130.225Z" fill="#185B2F" />
            <path d="M215.709 162.899C199.135 166.403 183.698 174.359 172.143 185.251L165.135 191.691L167.597 193.017C169.965 194.248 170.344 194.059 175.079 189.797C185.781 180.231 198.283 173.317 212.395 169.245C218.835 167.351 221.96 167.066 235.504 167.161C249.71 167.161 251.888 167.445 259.37 169.718C273.293 173.98 281.343 178.432 296.117 190.175C297.917 191.691 299.243 191.975 301.705 191.407L304.925 190.744L299.338 185.629C287.499 175.117 273.956 167.729 258.423 163.562C247.437 160.626 227.453 160.342 215.709 162.899Z" fill="#185B2F" />
            <path d="M322.636 167.351C305.683 173.696 305.588 173.696 305.588 176.064C305.588 178.81 308.714 179.189 314.207 177.011L319.321 175.117L323.109 178.905L326.898 182.693L324.246 187.334C320.552 193.964 321.026 197.847 325.288 196.521C327.561 195.763 343.093 165.551 342.241 163.467C341.294 161.005 338.452 161.573 322.636 167.351ZM331.444 173.696C329.929 176.821 329.739 176.916 328.129 175.401C325.856 173.317 325.951 172.56 329.076 171.518C333.054 170.002 333.149 170.097 331.444 173.696Z" fill="#185B2F" />
            <path d="M44.6648 178.053C32.7314 179.568 32.8261 179.379 39.6452 183.83C46.9378 188.471 55.651 197.373 64.7431 209.307C72.888 220.009 77.5288 228.627 83.4955 243.781C91.6404 264.617 98.3648 275.792 108.593 285.926C126.02 303.069 146.098 310.93 172.522 311.024C179.341 311.024 187.202 310.645 190.233 310.267L195.536 309.509L193.169 303.637C176.689 263.101 134.733 218.778 92.6822 197.468C85.5791 193.869 86.6208 193.585 94.1976 197.184C138.522 217.831 178.868 259.692 205.291 312.445C211.826 325.515 219.877 343.699 220.918 347.961L221.487 350.328H179.531H137.575L140.889 353.738C156.895 370.501 185.024 384.992 211.163 389.822C224.328 392.285 249.047 392 262.022 389.254C286.836 383.95 305.872 374.574 325.477 357.716L333.527 350.802L282.385 350.518L231.242 350.234L228.022 343.131L224.802 336.027L225.938 326.841C228.969 303.637 233.609 287.442 242.607 269.352C250.752 252.778 259.276 241.792 274.145 228.059C284.847 218.115 286.268 218.209 276.229 228.249C254.54 249.937 240.807 275.129 234.178 305.436L232.947 311.119L239.197 310.361C254.256 308.562 266.852 302.879 276.323 293.503C287.404 282.612 292.14 272.004 295.265 251.452C297.443 236.772 298.769 232.321 304.168 221.429C308.903 211.864 313.26 205.14 316.196 203.056L318.279 201.635H315.912C305.304 201.635 283.048 207.886 268.841 214.895C256.624 220.861 251.888 223.987 243.649 231.847C220.35 254.104 213.152 277.876 222.623 301.174L224.896 306.857L222.529 316.896C221.203 322.295 219.782 326.462 219.403 325.988C219.024 325.609 215.709 319.453 212.111 312.445L205.576 299.659L206.807 291.609C208.322 282.043 207.849 267.174 205.67 258.934C199.135 234.026 176.216 209.496 144.583 193.585C128.861 185.629 109.446 180.326 88.515 178.053C77.8129 176.821 54.3251 176.916 44.6648 178.053Z" fill="#185B2F" />
            <path d="M345.366 200.499C332.77 205.14 330.686 206.181 330.402 208.076C329.834 211.58 332.58 211.58 343.093 207.791C348.586 205.897 353.227 204.477 353.416 204.666C353.606 204.855 350.196 210.633 345.745 217.641C341.294 224.555 337.789 230.995 337.979 231.847C338.547 234.594 341.767 234.026 357.205 228.438C371.222 223.324 372.358 222.755 372.358 220.577C372.358 217.073 370.275 217.168 359.572 221.051C354.269 222.945 349.723 224.271 349.533 224.081C349.249 223.797 352.185 218.683 356.163 212.716C365.539 198.131 365.634 198.036 364.213 196.332C362.603 194.343 361.372 194.627 345.366 200.499Z" fill="#185B2F" />
            <path d="M319.416 218.209C317.711 220.767 317.806 220.956 320.079 228.059C333.717 269.447 315.059 314.528 275.566 335.27L270.357 338.016H276.229C281.343 338.016 282.858 337.543 287.878 334.417C295.076 330.061 307.767 317.559 312.881 310.077C324.625 292.651 329.739 276.077 329.644 255.146C329.644 241.034 327.656 230.427 323.204 220.198L321.121 215.558L319.416 218.209Z" fill="#185B2F" />
            <path d="M357.678 245.675C349.06 246.149 341.483 247.001 340.915 247.38C339.115 248.516 339.399 250.695 341.388 251.736C342.998 252.589 369.422 251.547 374.536 250.41C377.094 249.842 377.378 246.527 375.01 245.391C374.063 245.012 366.297 245.107 357.678 245.675Z" fill="#185B2F" />
            <path d="M346.503 269.921C341.483 272.478 338.263 276.55 336.842 282.233C334.948 289.62 338.452 298.333 342.051 295.397C343.188 294.45 343.377 293.03 342.904 288.768C342.146 281.759 343.851 278.35 349.628 275.508C356.068 272.383 362.319 274.656 365.729 281.191C368.286 286.116 367.623 289.146 362.319 296.439C360.804 298.428 361.845 301.08 364.118 301.08C366.297 301.08 370.464 296.818 371.79 293.219C373.4 288.957 373.021 282.138 370.938 277.781C366.676 269.163 355.216 265.469 346.503 269.921Z" fill="#185B2F" />
        </g>
    </g>
    <defs>
        <clipPath id="clip0">
            <rect width="470" height="512" fill="white" />
        </clipPath>
        <clipPath id="clip1">
            <rect width="470" height="512" fill="white" />
        </clipPath>
        <clipPath id="clip2">
            <rect width="358" height="315.381" fill="white" transform="translate(35 98)" />
        </clipPath>
    </defs>
</svg>