<svg width="470" height="512" viewBox="0 0 470 512" fill="none" xmlns="http://www.w3.org/2000/svg">
    <g clip-path="url(#clip0)">
        <path d="M464.291 129.408L240.291 1.40799C237.006 -0.469005 232.995 -0.469005 229.71 1.40799L5.71 129.408C2.382 131.307 0.334 134.848 0.334 138.667V373.334C0.334 377.153 2.382 380.694 5.71 382.593L229.71 510.593C231.353 511.532 233.166 512.001 235.001 512.001C236.836 512.001 238.649 511.532 240.292 510.593L464.292 382.593C467.62 380.694 469.668 377.153 469.668 373.334V138.667C469.667 134.848 467.619 131.307 464.291 129.408Z" fill="#FF8B60" />
        <g clip-path="url(#clip1)">
            <path d="M475.1 177.881L475.102 177.882C476.886 179.388 477.724 181.74 477.302 184.031L477.301 184.032L435.712 409.293C435.289 411.584 433.668 413.481 431.464 414.251L431.461 414.252L193.752 497.423C192.657 497.807 191.523 497.886 190.423 497.683C189.323 497.48 188.292 497.001 187.405 496.251L-4.93291 333.682L-4.93479 333.681C-6.71891 332.174 -7.55623 329.823 -7.13337 327.532L34.456 102.27C34.8788 99.9795 36.5006 98.0822 38.7051 97.3119L38.7073 97.3114L276.415 14.1398C276.415 14.1398 276.416 14.14 276.416 14.1399C278.597 13.3769 280.997 13.8201 282.762 15.3116C282.762 15.3116 282.763 15.3118 282.763 15.3118L475.1 177.881Z" stroke="white" stroke-width="8" />
        </g>
        <g clip-path="url(#clip2)">
            <path d="M203.193 97.9919C200.696 98.4129 198.954 99.0144 196.873 100.172C195.794 100.774 194.838 101.646 189.242 107.044C183.57 112.533 182.645 113.36 181.149 114.322C178.082 116.292 174.182 117.901 170.513 118.698C169.049 119.013 168.524 119.029 159.491 119.134C150.519 119.224 149.949 119.239 148.855 119.54C145.063 120.562 141.656 122.773 139.297 125.75C138.357 126.938 137.925 127.84 134.827 135.163C133.27 138.787 131.805 142.17 131.559 142.651C129.74 146.185 125.778 150.411 121.955 152.922C120.414 153.929 118.718 154.696 111.427 157.643C107.28 159.312 103.981 160.741 103.318 161.147C100.79 162.681 98.5857 165.207 97.0442 168.304C96.7051 169.011 96.3659 169.928 95.8881 171.462C95.8264 171.673 95.7339 175.958 95.6723 181.011C95.5798 188.785 95.5181 190.379 95.3023 191.461C94.7165 194.243 93.807 196.89 92.62 199.22C90.7702 202.889 90.1844 203.596 83.3401 210.333C77.4361 216.137 76.4803 217.204 75.5708 218.934C73.7673 222.422 73.2123 227.339 74.2606 230.647C74.4455 231.219 75.7712 234.452 77.2203 237.85C80.0875 244.602 80.7349 246.271 81.1049 247.805C82.0298 251.669 82.0298 257.157 81.1049 260.932C80.7349 262.39 80.4575 263.127 77.3128 270.555C75.725 274.315 74.3068 277.833 74.1681 278.375C73.1044 282.389 74.1064 287.863 76.5728 291.412C76.8503 291.802 79.8563 294.87 83.2476 298.223C89.8145 304.689 90.4311 305.411 92.0959 308.448C93.0825 310.253 94.1616 312.869 94.6703 314.659C95.5643 317.891 95.5489 317.771 95.6723 327.62C95.7493 335.605 95.811 336.913 96.0268 337.695C97.3525 342.206 100.667 346.326 104.428 348.131C104.906 348.371 108.359 349.8 112.074 351.303C119.335 354.221 120.213 354.627 121.647 355.559C125.963 358.386 130.002 362.747 131.759 366.446C132.021 367.017 133.517 370.476 135.089 374.16C136.769 378.114 138.218 381.302 138.634 381.964C140.685 385.182 144.585 387.948 148.67 389.076C149.81 389.392 150.227 389.407 159.26 389.497C168.185 389.587 168.74 389.617 170.251 389.933C174.151 390.745 178.791 392.7 181.766 394.76C182.737 395.437 184.988 397.482 189.32 401.677C192.711 404.955 195.794 407.842 196.179 408.098C198.091 409.346 200.989 410.383 203.548 410.714C205.197 410.925 208.249 410.804 209.513 410.474C210.022 410.338 213.768 408.88 217.838 407.241C221.907 405.602 225.591 404.158 226.008 404.038C230.617 402.609 237.985 402.654 242.579 404.113C243.134 404.293 246.494 405.617 250.055 407.045C253.616 408.489 256.961 409.827 257.501 410.023C261.786 411.616 268.06 410.804 272.145 408.128C272.546 407.857 275.506 405.105 278.728 401.978C281.949 398.865 284.971 396.008 285.433 395.632C288.455 393.181 293.588 390.866 298.074 389.933C299.615 389.617 300.139 389.587 309.096 389.497C318.021 389.407 318.56 389.392 319.67 389.091C321.859 388.49 324.048 387.407 325.96 385.979C327.316 384.956 329.212 382.896 329.937 381.663C330.291 381.046 331.864 377.543 333.421 373.859C337.074 365.228 337.336 364.731 339.633 361.904C342.5 358.371 346.57 355.258 350.285 353.739C351.117 353.394 354.555 351.995 357.931 350.627C364.482 347.98 365.546 347.424 367.257 345.83C369.785 343.484 371.481 340.733 372.344 337.62L372.729 336.191L372.837 326.944C372.93 318.358 372.961 317.591 373.254 316.328C373.901 313.546 375.304 310.012 376.737 307.621C378.186 305.17 379.204 304.027 385.401 297.922C390.781 292.629 391.675 291.682 392.291 290.63C394.403 287.066 395.174 282.57 394.326 278.826C394.049 277.623 394.295 278.239 390.981 270.405C389.455 266.811 388.037 263.383 387.836 262.811C386.172 258.09 386.125 250.977 387.744 246.12C387.883 245.699 389.332 242.181 390.981 238.301C392.63 234.407 394.11 230.708 394.264 230.061C395.266 225.956 394.264 220.828 391.752 217.174C391.49 216.798 388.499 213.761 385.092 210.408C379.666 205.055 378.772 204.122 377.786 202.679C376.013 200.077 374.456 196.724 373.624 193.717C372.868 190.965 372.837 190.529 372.837 182.364C372.837 174.424 372.729 172.364 372.236 170.695C370.972 166.44 367.704 162.395 364.051 160.56C363.758 160.41 360.459 159.057 356.713 157.538C349.699 154.711 348.343 154.11 346.817 153.162C343.749 151.253 340.342 147.975 338.138 144.817C337.151 143.418 336.334 141.659 333.529 135.088C330.199 127.239 330.399 127.705 329.629 126.517C327.856 123.855 324.526 121.299 321.274 120.111C318.884 119.224 319.085 119.239 308.864 119.134C299.846 119.029 299.307 119.013 297.842 118.698C294.204 117.901 290.258 116.277 287.191 114.292C285.711 113.33 284.755 112.472 279.19 107.104C272.5 100.638 271.883 100.127 269.479 99.1648C266.087 97.8115 262.002 97.4355 258.919 98.2175C258.287 98.3829 254.51 99.8264 250.518 101.435C242.548 104.653 242.379 104.713 240.267 105.149C235.55 106.112 229.461 105.811 225.391 104.413C224.682 104.157 221.059 102.729 217.344 101.225C213.629 99.7362 210.068 98.3678 209.436 98.2024C207.941 97.8265 204.889 97.7212 203.193 97.9919ZM240.036 125.299C270.511 126.727 298.274 137.599 321.274 157.117C324.634 159.959 330.985 166.154 333.899 169.432C352.628 190.439 363.712 215.866 366.132 243.414C366.856 251.639 366.687 261.684 365.669 269.803C363.804 284.645 359.442 298.825 352.628 312.072C338.523 339.545 314.244 361.709 285.279 373.513C258.919 384.264 229.831 386.4 201.96 379.633C160.293 369.528 125.593 339.379 110.317 300.028C105.877 288.585 103.272 277.126 102.116 264.014C101.838 260.932 101.838 247.835 102.116 244.692C103.673 226.798 108.174 211.099 116.067 195.972C122.418 183.807 130.526 172.951 140.608 163.117C148.793 155.117 157.472 148.546 167.276 142.892C189.042 130.366 214.847 124.126 240.036 125.299Z" fill="#182F5A" />
            <path d="M228.32 126.667C195.439 128.186 164.917 141.358 141.61 164.094C120.136 185.056 106.864 212.272 103.858 241.459C102.917 250.541 103.041 261.142 104.151 269.879C106.864 291.036 114.602 310.493 127.227 327.966C134.349 337.815 143.737 347.424 153.556 354.927C176.71 372.611 204.904 382.129 234.178 382.129C263.528 382.129 291.892 372.536 314.984 354.807C320.981 350.206 328.334 343.379 333.082 337.996C351.179 317.486 362.062 292.825 364.59 266.646C365.423 257.984 365.33 248.241 364.359 239.88C360.983 211.16 347.849 184.68 326.746 164.094C307.277 145.118 282.766 132.727 255.913 128.321C246.818 126.833 237.276 126.261 228.32 126.667ZM236.043 153.929C237.554 154.621 238.509 155.929 238.679 157.538C238.849 159.117 237.97 160.861 236.629 161.628C236.012 161.974 235.966 162.049 236.135 162.335C238.71 167.056 247.45 182.424 247.635 182.559C247.774 182.665 248.051 182.725 248.221 182.695C248.406 182.665 251.659 180.785 255.435 178.53L262.326 174.424L262.018 174.109C261.016 173.056 260.646 171.131 261.154 169.643C261.54 168.545 262.711 167.387 263.837 167.026C264.854 166.711 266.596 166.771 267.397 167.162C268.137 167.538 269.047 168.41 269.448 169.131C269.725 169.628 269.787 169.989 269.787 171.161C269.787 172.831 269.54 173.447 268.477 174.379C267.706 175.056 266.981 175.372 265.933 175.507L265.178 175.597L261.355 188.83C259.258 196.108 257.547 202.107 257.547 202.168C257.532 202.243 274.935 202.288 296.193 202.288C326.052 202.288 334.901 202.333 335.039 202.468C335.147 202.574 335.224 202.784 335.224 202.964C335.224 203.145 335.147 203.355 335.039 203.461C334.762 203.731 133.594 203.731 133.316 203.461C133.085 203.235 133.085 202.694 133.316 202.468C133.455 202.333 142.303 202.288 172.178 202.288H210.855L210.777 201.942C210.716 201.762 209.005 195.747 206.939 188.589L203.209 175.552L202.407 175.492C200.973 175.372 199.632 174.47 198.939 173.146C198.399 172.109 198.399 170.199 198.954 169.146C199.786 167.553 201.374 166.711 203.332 166.831C204.611 166.921 205.398 167.267 206.23 168.109C207.771 169.673 207.879 172.319 206.461 173.958L206.06 174.424L212.936 178.53C216.728 180.785 219.965 182.665 220.15 182.695C220.319 182.74 220.612 182.635 220.797 182.484C221.029 182.289 230.709 165.222 232.22 162.35C232.374 162.064 232.312 161.974 231.65 161.553C229.322 160.094 228.998 156.831 230.971 154.846C232.251 153.568 234.394 153.177 236.043 153.929ZM218.285 216.047C218.47 216.242 221.09 221.355 224.081 227.384C227.087 233.429 229.553 238.361 229.569 238.331C229.584 238.316 231.973 233.429 234.887 227.475C237.785 221.52 240.267 216.483 240.405 216.272C240.852 215.565 241.222 215.49 241.577 216.016C241.716 216.242 242.425 220.513 243.581 228.151C245.724 242.406 245.616 241.7 246.001 242.842C246.448 244.226 247.08 244.602 249.362 244.827C250.21 244.902 250.364 244.963 250.364 245.203C250.364 245.399 250.21 245.534 249.901 245.609C249.315 245.775 241.037 245.489 240.513 245.293C240.005 245.113 240.02 245.038 240.529 244.511L240.945 244.075L239.743 235.399C239.08 230.632 238.509 226.602 238.463 226.452C238.417 226.272 236.675 229.655 233.777 235.534C231.249 240.677 229.06 245.053 228.937 245.248C228.505 245.88 228.058 245.699 227.41 244.647C226.563 243.263 222.077 234.482 220.073 230.287C219.117 228.287 218.3 226.663 218.285 226.693C218.223 226.753 216.281 241.309 216.157 242.587C216.003 244.196 216.404 244.602 218.315 244.797C219.256 244.902 219.379 244.963 219.425 245.248C219.472 245.504 219.395 245.594 219.163 245.609C218.978 245.609 216.897 245.624 214.523 245.624C212.149 245.624 210.099 245.609 209.96 245.609C209.806 245.594 209.745 245.474 209.775 245.248C209.822 244.963 209.93 244.902 210.793 244.827C212.473 244.677 212.72 244.211 213.352 240.181C213.568 238.812 214.477 232.993 215.371 227.249C216.265 221.505 217.021 216.648 217.067 216.468C217.159 216.107 217.545 215.671 217.776 215.671C217.868 215.671 218.084 215.836 218.285 216.047ZM310.005 216.152C310.205 216.422 312.795 221.505 315.724 227.43C318.668 233.369 321.119 238.226 321.181 238.226C321.227 238.226 323.663 233.309 326.592 227.294C329.521 221.294 332.033 216.212 332.187 216.016C332.742 215.325 333.267 215.746 333.513 217.099C333.606 217.595 334.438 223.114 335.378 229.354C336.319 235.595 337.182 241.173 337.305 241.745C337.598 243.068 338.03 243.955 338.569 244.256C339.016 244.496 340.419 244.812 341.39 244.872C342.099 244.932 342.161 245.444 341.467 245.609C340.99 245.744 332.866 245.519 332.218 245.353C331.74 245.233 331.71 244.767 332.141 244.542C332.357 244.421 332.45 244.226 332.45 243.82C332.465 242.933 330.076 226.196 329.968 226.317C329.906 226.377 327.917 230.407 325.513 235.264C323.123 240.136 320.981 244.436 320.749 244.812C320.287 245.579 319.855 245.759 319.47 245.338C318.9 244.722 314.26 235.685 311.161 229.159C310.56 227.911 310.02 226.828 309.959 226.768C309.835 226.633 307.77 242.03 307.785 243.068C307.785 243.444 307.831 243.88 307.878 244.015C308.016 244.376 308.71 244.662 309.65 244.767C310.113 244.812 310.637 244.887 310.837 244.932C311.192 245.008 311.3 245.353 310.992 245.534C310.776 245.669 301.712 245.669 301.48 245.534C301.188 245.353 301.295 245.008 301.665 244.932C301.85 244.887 302.297 244.827 302.667 244.782C303.469 244.707 303.87 244.376 304.255 243.564C304.533 242.963 304.764 241.534 307.384 224.723C308.679 216.438 308.849 215.671 309.404 215.671C309.527 215.671 309.789 215.896 310.005 216.152ZM205.737 216.573C205.737 217.084 205.274 221.746 205.197 221.941C205.089 222.227 204.534 222.182 204.457 221.866C204.411 221.731 204.334 221.294 204.272 220.903C204.149 220.016 203.656 219.4 202.854 219.144C202.299 218.964 196.241 218.648 195.994 218.783C195.917 218.813 195.871 221.144 195.871 223.956V229.053H199.016C202.577 229.053 203.609 228.918 204.195 228.377C204.411 228.166 204.719 228.001 204.873 228.001C205.135 228.001 205.151 228.091 205.058 229.084C205.012 229.685 204.889 231.083 204.812 232.196C204.719 233.294 204.611 234.256 204.565 234.331C204.519 234.407 204.349 234.467 204.195 234.467C203.964 234.467 203.887 234.301 203.794 233.595C203.548 231.565 203.054 231.324 198.877 231.204L195.871 231.114V236.361C195.871 241.188 195.902 241.654 196.164 242.241C196.349 242.617 196.657 242.963 196.935 243.113C197.644 243.459 199.74 243.669 201.42 243.564C204.473 243.354 205.105 242.948 205.737 240.707C205.937 240 206.076 239.79 206.322 239.76C206.692 239.7 206.723 239.805 206.677 241.233C206.631 242.361 206.23 244.963 206.045 245.293C205.952 245.444 205.768 245.609 205.629 245.654C205.475 245.699 199.941 245.714 193.327 245.684C184.433 245.639 181.149 245.579 180.687 245.444C178.328 244.737 177.142 243.564 172.517 237.264C171.253 235.534 170.066 234.031 169.881 233.91C169.634 233.76 169.079 233.715 167.723 233.745L165.888 233.79L165.842 236.572C165.796 239.639 165.996 242.993 166.274 243.76C166.52 244.406 167.045 244.647 168.478 244.782C169.187 244.842 169.727 244.963 169.835 245.098C170.266 245.594 169.804 245.639 163.931 245.624C160.771 245.624 158.088 245.609 157.98 245.609C157.688 245.594 157.564 245.128 157.811 244.978C157.934 244.902 158.273 244.842 158.566 244.842C158.859 244.842 159.352 244.767 159.661 244.692C160.971 244.331 161.063 243.218 161.002 229.505C160.956 219.791 160.94 218.858 160.694 218.422C160.37 217.866 159.568 217.535 158.181 217.4C157.148 217.31 156.886 217.144 157.163 216.828C157.425 216.498 170.189 216.483 172.255 216.798C175.538 217.31 177.434 218.663 178.483 221.219C178.76 221.881 178.822 222.377 178.837 223.565C178.837 226.437 177.974 228.211 175.276 230.813L173.843 232.181L176.016 234.873C182.814 243.248 184.402 244.602 187.47 244.797C189.273 244.917 189.705 244.767 190.152 243.88C190.522 243.158 190.537 243.068 190.661 237.113C190.738 233.805 190.738 228.302 190.676 224.888C190.553 218.919 190.537 218.678 190.229 218.272C189.828 217.761 189.181 217.52 187.809 217.4C186.838 217.31 186.761 217.28 186.807 216.979L186.853 216.648L195.331 216.618C200.002 216.603 204.087 216.528 204.426 216.453C205.459 216.212 205.737 216.242 205.737 216.573ZM147.591 217.009C149.995 217.701 151.352 218.738 152.231 220.528C153.14 222.377 153.202 224.197 152.462 226.497C151.244 230.287 147.621 232.753 143.429 232.632C142.103 232.587 141.995 232.557 141.949 232.271C141.918 232.016 142.01 231.926 142.396 231.85C142.658 231.805 143.059 231.76 143.29 231.76C143.953 231.76 145.494 230.948 146.265 230.196C149.148 227.384 148.716 221.776 145.432 219.475C144.492 218.813 143.059 218.377 141.872 218.377C140.145 218.377 140.299 217.415 140.253 228.031C140.238 233.098 140.284 238.617 140.361 240.271C140.561 244.406 140.685 244.602 143.043 244.782C143.891 244.857 144.446 244.963 144.569 245.098C144.985 245.594 144.508 245.639 138.419 245.624C135.135 245.624 132.345 245.609 132.237 245.609C131.944 245.594 131.821 245.128 132.068 244.978C132.191 244.902 132.53 244.842 132.823 244.842C133.116 244.842 133.609 244.767 133.917 244.692C135.212 244.331 135.32 243.173 135.258 229.429C135.212 219.791 135.197 218.858 134.95 218.422C134.626 217.866 133.825 217.535 132.437 217.4C131.435 217.31 131.189 217.174 131.328 216.813C131.405 216.618 132.33 216.588 138.943 216.633C146.188 216.663 146.512 216.678 147.591 217.009ZM264.854 216.949C264.854 217.189 264.715 217.28 264.16 217.37C261.971 217.746 261.848 217.866 261.678 219.986C261.524 221.866 261.524 238.707 261.678 241.384C261.848 244.361 262.033 244.602 264.284 244.782C265.64 244.887 266.087 245.083 265.871 245.429C265.748 245.609 264.731 245.639 259.736 245.624C256.453 245.624 253.632 245.609 253.493 245.609C253.138 245.594 253.123 245.053 253.462 244.932C253.601 244.887 253.955 244.842 254.264 244.842C255.034 244.842 255.867 244.406 256.114 243.895C256.453 243.203 256.638 236.497 256.576 227.399C256.514 219.249 256.514 219.204 256.175 218.513C255.79 217.731 255.451 217.55 254.156 217.415C253.246 217.325 252.969 217.174 253.108 216.813C253.185 216.618 253.986 216.603 259.027 216.618C264.731 216.648 264.854 216.648 264.854 216.949ZM281.04 216.949C281.04 217.189 280.901 217.28 280.269 217.37C279.853 217.445 279.252 217.58 278.959 217.686C277.941 218.016 277.957 217.836 277.911 227.024C277.849 235.895 277.926 237.143 278.589 239.098C279.036 240.436 279.545 241.233 280.516 242.151C281.996 243.549 284.354 244.271 286.512 243.97C290.058 243.474 291.923 241.895 292.879 238.557C293.187 237.444 293.202 237.053 293.249 228.452C293.31 218.768 293.295 218.468 292.509 217.896C292.247 217.701 291.676 217.55 290.906 217.46C289.595 217.325 289.287 217.174 289.58 216.813C289.749 216.618 290.536 216.588 294.96 216.618C300.124 216.648 300.155 216.648 300.201 216.964C300.247 217.25 300.139 217.295 299.153 217.445C297.75 217.64 297.395 217.881 297.164 218.723C297.056 219.159 296.964 222.182 296.902 227.129C296.81 235.429 296.686 237.143 295.993 239.113C294.836 242.466 292.463 244.647 288.825 245.775C287.776 246.09 287.406 246.12 284.662 246.105C281.317 246.105 280.13 245.895 278.311 244.993C275.999 243.85 274.226 241.835 273.471 239.474C272.777 237.324 272.762 236.993 272.654 227.851C272.531 217.836 272.577 218.137 271.39 217.731C271.02 217.595 270.295 217.46 269.787 217.4C268.8 217.31 268.538 217.174 268.677 216.813C268.754 216.618 269.571 216.603 274.905 216.618C280.932 216.648 281.04 216.648 281.04 216.949ZM220.551 257.248C220.782 257.654 223.202 263.413 225.931 270.029C232.497 285.908 232.39 285.667 233.684 286.961C234.363 287.622 234.933 287.833 236.382 287.968C237.276 288.058 237.415 288.118 237.461 288.389C237.507 288.66 237.399 288.72 236.922 288.795C236.213 288.915 230.571 288.9 228.012 288.765C226.408 288.69 226.162 288.645 226.116 288.404C226.069 288.224 226.208 288.088 226.516 287.983C226.778 287.893 227.025 287.727 227.071 287.607C227.164 287.397 223.88 278.66 223.572 278.254C223.464 278.119 222.262 278.074 218.516 278.074H213.614L213.321 278.856C213.151 279.292 212.612 280.66 212.134 281.908C210.084 287.186 210.115 287.848 212.381 287.968C213.491 288.028 213.86 288.254 213.46 288.645C213.259 288.84 202.823 288.945 202.499 288.75C202.407 288.69 202.345 288.509 202.376 288.359C202.422 288.118 202.623 288.058 203.532 287.968C205.32 287.788 206.338 287.096 207.186 285.472C207.386 285.081 210.022 278.72 213.028 271.352C216.049 263.969 218.639 257.714 218.778 257.443C219.425 256.18 219.949 256.12 220.551 257.248ZM153.633 257.112C157.225 257.714 160.277 259.233 162.651 261.608C164.609 263.563 165.811 265.789 166.52 268.751C166.967 270.691 166.937 274.645 166.443 276.465C165.472 280.134 163.422 283.231 160.37 285.682L159.63 286.269L165.534 289.156C168.786 290.75 171.993 292.269 172.671 292.524C181.072 295.727 186.745 296.178 193.065 294.148C194.206 293.772 194.545 293.727 194.715 293.863C195.162 294.223 194.931 294.479 193.605 295.081C188.919 297.186 184.048 298.058 178.729 297.742C173.257 297.426 169.465 296.028 160.801 291.081C158.69 289.863 156.763 288.78 156.547 288.675C156.177 288.479 155.961 288.509 154.62 288.825C150.026 289.908 144.97 289.517 141.209 287.788C139.297 286.9 138.11 286.073 136.677 284.6C132.992 280.826 131.281 274.886 132.422 269.728C133.809 263.428 138.403 258.766 144.662 257.338C147.39 256.706 150.704 256.631 153.633 257.112ZM283.198 257.142C284.339 257.488 305.242 257.609 307.554 257.263C308.741 257.097 309.142 257.082 309.311 257.218C309.465 257.353 310.899 257.398 314.475 257.398C317.204 257.398 319.516 257.458 319.624 257.518C319.963 257.729 319.824 257.909 319.085 258.255C317.759 258.872 317.666 258.661 322.861 267.518L325.898 272.661L326.253 271.954C326.468 271.548 327.702 269.352 329.012 267.052C331.941 261.924 332.588 260.616 332.696 259.639C332.789 258.932 332.758 258.857 332.372 258.556C332.141 258.375 331.818 258.225 331.679 258.225C331.309 258.225 331.047 257.894 331.216 257.624C331.324 257.443 332.172 257.413 336.165 257.398C341.128 257.398 341.699 257.458 341.267 257.969C341.159 258.09 340.743 258.225 340.342 258.27C337.876 258.556 336.642 259.879 332.342 266.871C329.921 270.796 328.519 273.292 328.118 274.315C327.609 275.653 327.47 277.487 327.578 281.773C327.686 286.073 327.84 287.051 328.519 287.487C328.734 287.622 329.505 287.788 330.261 287.878C331.001 287.953 331.756 288.043 331.956 288.088C332.357 288.164 332.403 288.539 332.033 288.72C331.694 288.885 318.884 288.87 318.622 288.705C318.298 288.509 318.391 288.164 318.776 288.088C318.961 288.043 319.47 287.983 319.886 287.938C320.749 287.833 321.335 287.487 321.643 286.87C322.06 286.043 322.276 279.427 321.967 276.811C321.875 276.074 321.643 275.081 321.459 274.63C320.934 273.397 315.647 264.796 313.489 261.684C312.579 260.39 311.516 259.293 310.652 258.812C309.311 258.075 309.327 258.06 309.327 260.466C309.327 263.082 309.25 263.488 308.772 263.488C308.479 263.488 308.402 263.383 308.325 262.917C308.155 261.879 308.094 261.729 307.77 261.323C306.953 260.315 305.658 260.03 301.357 259.924L297.92 259.834V268.766C297.935 273.683 297.997 279.593 298.058 281.908C298.243 287.622 298.259 287.652 300.941 287.893C302.128 288.013 302.59 288.103 302.667 288.269C302.883 288.825 302.436 288.855 295.715 288.84C292.139 288.825 289.117 288.765 289.025 288.705C288.701 288.509 288.794 288.164 289.179 288.088C289.364 288.043 289.919 287.968 290.412 287.923C292.478 287.697 292.509 287.412 292.524 271.172V259.834L288.67 259.924C283.152 260.075 282.674 260.225 281.734 262.059C281.333 262.841 281.117 263.112 280.886 263.112C280.608 263.112 280.577 263.022 280.608 262.059C280.624 260.962 281.287 257.548 281.595 257.007C281.718 256.767 281.841 256.721 282.088 256.797C282.273 256.857 282.782 257.007 283.198 257.142ZM183.554 257.578C183.909 257.924 183.585 258.18 182.66 258.27C181.288 258.406 180.826 258.616 180.502 259.248C180.24 259.759 180.225 260.436 180.178 268.601C180.132 277.848 180.209 279.502 180.795 281.367C181.519 283.698 182.861 285.322 184.834 286.269C188.009 287.788 192.125 287.156 194.484 284.78C196.703 282.555 197.012 280.344 196.919 267.849C196.873 260.496 196.858 260.075 196.565 259.503C196.179 258.736 195.486 258.406 194.006 258.255C193.004 258.165 192.865 258.105 192.819 257.834C192.788 257.594 192.865 257.488 193.127 257.428C193.327 257.398 195.902 257.368 198.846 257.383C203.332 257.413 204.241 257.443 204.349 257.624C204.581 257.969 204.272 258.135 203.024 258.33C201.775 258.511 201.528 258.646 201.143 259.338C200.912 259.759 200.865 260.751 200.788 268.676C200.727 273.563 200.603 278.029 200.526 278.6C199.817 283.186 198.152 285.848 194.792 287.788C193.25 288.675 191.632 289.156 189.52 289.351C186.144 289.667 182.861 289.186 180.487 288.043C178.806 287.231 176.895 285.367 176.109 283.773C175.508 282.57 175.045 281.096 174.737 279.427C174.613 278.796 174.521 275.172 174.459 269.202C174.382 262.135 174.305 259.834 174.151 259.458C173.873 258.781 172.995 258.375 171.577 258.27C170.343 258.18 169.85 257.894 170.313 257.563C170.652 257.323 183.308 257.338 183.554 257.578ZM251.181 257.458C251.304 257.473 251.366 257.609 251.335 257.804C251.289 258.105 251.15 258.15 249.855 258.315C248.082 258.526 247.743 258.781 247.512 260.06C247.25 261.398 247.389 283.833 247.651 284.6C247.913 285.382 248.545 285.968 249.377 286.224C250.348 286.494 256.006 286.494 256.823 286.209C258.056 285.788 258.857 284.735 259.335 282.886C259.489 282.254 260.06 282.059 260.199 282.585C260.384 283.277 259.767 287.743 259.382 288.449C259.058 289.036 259.181 289.036 245.986 288.885C239.835 288.81 238.355 288.75 238.263 288.585C238.032 288.239 238.386 288.043 239.419 287.953C240.652 287.833 240.93 287.697 241.253 287.036C241.747 286.028 241.824 283.668 241.777 271.683C241.747 262.21 241.685 259.864 241.515 259.458C241.238 258.796 240.39 258.39 238.987 258.255C238.001 258.165 237.877 258.105 237.831 257.819C237.8 257.609 237.877 257.488 238.047 257.443C238.294 257.398 250.641 257.413 251.181 257.458ZM276.462 257.458C276.585 257.473 276.647 257.609 276.616 257.804C276.569 258.105 276.446 258.165 275.645 258.255C274.196 258.436 273.779 258.616 273.456 259.248C273.194 259.774 273.178 260.481 273.178 272.961C273.178 287.126 273.178 286.991 273.964 287.502C274.196 287.652 274.997 287.803 275.999 287.908C277.51 288.058 277.649 288.103 277.695 288.404C277.726 288.645 277.649 288.735 277.309 288.795C276.97 288.87 264.946 288.84 264.191 288.765C264.068 288.75 264.006 288.615 264.037 288.404C264.083 288.103 264.206 288.058 265.162 287.953C265.81 287.893 266.395 287.727 266.627 287.562C267.475 286.961 267.459 287.096 267.475 272.886C267.475 259.969 267.475 259.804 267.151 259.278C266.765 258.616 266.257 258.375 264.962 258.255C264.052 258.165 263.929 258.105 263.883 257.819C263.852 257.609 263.929 257.488 264.114 257.443C264.345 257.398 275.876 257.413 276.462 257.458ZM334.931 305.14C335.224 305.306 335.301 305.667 335.132 306.103C335.039 306.328 326.006 306.343 234.255 306.343C145.248 306.343 133.455 306.313 133.285 306.118C133.039 305.832 133.208 305.185 133.563 305.095C134.164 304.945 334.638 304.99 334.931 305.14ZM188.842 319.696C189.859 321.982 190.691 323.876 190.707 323.891C190.722 323.921 192.742 324.102 195.193 324.327C197.644 324.538 199.786 324.763 199.941 324.824C200.203 324.914 199.663 325.425 196.673 327.981C194.114 330.147 193.112 331.109 193.158 331.289C193.482 332.372 195.131 339.89 195.069 339.951C195.023 339.996 193.189 339.003 191 337.755C188.811 336.492 186.946 335.47 186.853 335.47C186.776 335.47 184.911 336.507 182.722 337.755C180.517 339.018 178.698 340.011 178.652 339.981C178.606 339.936 179.053 337.891 179.623 335.44C180.255 332.703 180.595 330.944 180.502 330.883C180.425 330.823 178.806 329.455 176.926 327.846C174.105 325.47 173.534 324.914 173.766 324.824C173.935 324.763 175.8 324.568 177.912 324.387C180.04 324.222 182.059 324.042 182.398 323.996L183.03 323.906L184.587 320.433C185.435 318.508 186.283 316.628 186.452 316.222C186.622 315.831 186.822 315.516 186.884 315.516C186.946 315.516 187.84 317.395 188.842 319.696ZM236.952 321.5L239.558 327.35L246.232 327.936C249.901 328.252 252.892 328.568 252.876 328.628C252.846 328.673 250.826 330.432 248.36 332.507C245.909 334.598 243.658 336.522 243.381 336.778L242.872 337.259L244.275 343.274C245.045 346.567 245.708 349.394 245.755 349.529C245.801 349.68 245.77 349.8 245.693 349.8C245.6 349.8 242.995 348.341 239.897 346.567C236.814 344.793 234.224 343.334 234.178 343.334C234.131 343.334 231.557 344.793 228.459 346.567C225.345 348.356 222.755 349.8 222.693 349.77C222.632 349.74 223.233 346.943 224.035 343.559C224.821 340.161 225.437 337.319 225.406 337.229C225.36 337.124 223.125 335.169 220.412 332.868C217.699 330.553 215.525 328.628 215.572 328.583C215.633 328.538 218.639 328.237 222.246 327.921L228.829 327.335L231.11 322.222C232.359 319.395 233.546 316.734 233.746 316.298C233.946 315.862 234.162 315.531 234.224 315.576C234.301 315.621 235.519 318.282 236.952 321.5ZM283.506 319.801C284.508 322.027 285.325 323.876 285.356 323.906C285.372 323.921 287.483 324.132 290.027 324.357C292.586 324.598 294.713 324.824 294.759 324.869C294.806 324.914 293.249 326.327 291.291 327.996C288.285 330.538 287.73 331.079 287.807 331.35C288.485 334.116 289.765 339.906 289.703 339.966C289.657 340.011 287.838 339.018 285.634 337.755C283.445 336.492 281.595 335.47 281.502 335.47C281.41 335.47 279.56 336.492 277.371 337.755C275.167 339.018 273.348 340.011 273.301 339.966C273.24 339.906 274.781 332.958 275.228 331.274C275.275 331.109 274.211 330.117 271.698 327.981C268.754 325.47 268.168 324.914 268.415 324.824C268.569 324.763 270.712 324.538 273.163 324.327C275.614 324.117 277.633 323.921 277.664 323.891C277.679 323.876 278.496 322.027 279.498 319.801C281.533 315.2 281.425 315.44 281.579 315.621C281.656 315.681 282.52 317.561 283.506 319.801Z" fill="#182F5A" />
            <path d="M166.274 218.648L165.888 218.768L165.842 224.903C165.827 228.828 165.858 231.114 165.966 231.234C166.228 231.535 168.154 231.805 169.542 231.73C171.099 231.655 171.977 231.234 172.733 230.226C174.259 228.196 174.567 224.362 173.38 221.896C172.764 220.603 171.53 219.43 170.328 218.964C169.388 218.603 167.06 218.422 166.274 218.648Z" fill="#182F5A" />
            <path d="M216.574 270.45C215.448 273.352 214.554 275.758 214.585 275.773C214.616 275.803 216.435 275.803 218.639 275.788L222.663 275.743L220.705 270.525C219.626 267.653 218.716 265.277 218.67 265.232C218.639 265.187 217.683 267.533 216.574 270.45Z" fill="#182F5A" />
            <path d="M145.802 259.278C144.107 259.714 142.92 260.39 141.61 261.684C139.251 263.969 138.218 267.142 138.203 271.954C138.203 276.826 139.59 280.69 142.349 283.532C146.666 287.953 153.695 288.509 157.364 284.72C158.551 283.487 159.214 282.374 159.784 280.66C160.539 278.405 160.647 277.517 160.647 273.863C160.647 270.871 160.601 270.33 160.293 269.157C158.936 263.894 155.714 260.39 151.198 259.263C149.656 258.887 147.344 258.887 145.802 259.278Z" fill="#182F5A" />
        </g>
    </g>
    <defs>
        <clipPath id="clip0">
            <rect width="470" height="512" fill="white" />
        </clipPath>
        <clipPath id="clip1">
            <rect width="470" height="512" fill="white" />
        </clipPath>
        <clipPath id="clip2">
            <rect width="356" height="355" fill="white" transform="translate(57 93)" />
        </clipPath>
    </defs>
</svg>