<svg width="470" height="512" viewBox="0 0 470 512" fill="none" xmlns="http://www.w3.org/2000/svg">
    <g clip-path="url(#clip0)">
        <mask id="mask0" mask-type="alpha" maskUnits="userSpaceOnUse" x="0" y="-2" width="470" height="512">
            <path d="M463.953 127.407L239.955 -0.592265C236.67 -2.46924 232.659 -2.46924 229.374 -0.592265L5.37595 127.407C2.04798 129.306 0 132.846 0 136.665V371.33C0 375.149 2.04798 378.69 5.37595 380.589L229.374 508.588C231.017 509.527 232.83 509.996 234.665 509.996C236.5 509.996 238.313 509.527 239.956 508.588L463.954 380.589C467.282 378.69 469.33 375.149 469.33 371.33V136.665C469.329 132.846 467.281 129.306 463.953 127.407Z" fill="#FF8B60" />
        </mask>
        <g mask="url(#mask0)">
            <path d="M464.291 129.408L240.291 1.40799C237.006 -0.469005 232.995 -0.469005 229.71 1.40799L5.70998 129.408C2.38198 131.307 0.333984 134.848 0.333984 138.667V373.334C0.333984 377.153 2.38198 380.694 5.70998 382.593L229.71 510.593C231.353 511.532 233.166 512.001 235.001 512.001C236.836 512.001 238.649 511.532 240.292 510.593L464.292 382.593C467.62 380.694 469.668 377.153 469.668 373.334V138.667C469.667 134.848 467.619 131.307 464.291 129.408Z" fill="#FF8B60" />
            <path d="M475.1 177.881L475.102 177.882C476.886 179.388 477.724 181.74 477.302 184.031L477.301 184.032L435.712 409.293C435.289 411.584 433.668 413.481 431.464 414.251L431.461 414.252L193.752 497.423C192.657 497.807 191.523 497.886 190.423 497.683C189.323 497.48 188.292 497.001 187.405 496.251L-4.93291 333.682L-4.93479 333.681C-6.71891 332.174 -7.55623 329.823 -7.13337 327.532L34.456 102.27C34.8788 99.9795 36.5006 98.0822 38.7051 97.3119L38.7073 97.3114L276.415 14.1398C276.415 14.1398 276.416 14.14 276.416 14.1399C278.597 13.3769 280.997 13.8201 282.762 15.3116L282.763 15.3118L475.1 177.881Z" stroke="white" stroke-width="8" />
            <path d="M207.696 408.229C207.696 408.229 220.225 258.989 223.634 240.081C223.634 240.081 297.548 179.131 295.047 172.333C300.189 170.473 306.233 162.278 307.568 153.369C322.509 154.155 334.381 170 333.358 192.706C331.61 231.549 336.714 235.149 347.331 266.42C364.09 315.773 322.232 333.686 342.025 382.675C407.37 544.426 207.648 417.188 207.696 408.229Z" fill="#751700" />
            <path d="M322.053 249.355C320.536 244.813 311.235 237.021 308.536 223.575C307.54 218.616 308.476 215.881 309.517 211.197C309.592 210.864 309.663 210.53 309.73 210.192C311.224 202.945 311.504 195.188 309.598 187.011C308.841 183.794 307.89 180.636 306.84 177.678C303.026 166.943 297.924 158.889 296.317 160.448C293.902 162.801 287.091 164.927 280.15 169.993C251.319 190.986 183.843 220.815 177.36 223.648C177.069 223.783 176.913 224.148 176.985 224.505C178.637 232.941 213.367 380.833 232.328 410.12C237.436 418.007 279.647 389.594 279.647 389.594C275.123 385.126 274.194 337.673 274.43 332.731C274.714 326.821 278.923 320.753 284.737 320.931C284.823 320.928 284.907 320.928 284.993 320.937C285.075 320.945 285.18 320.945 285.269 320.957C285.345 320.96 302.642 322.874 308.158 320.396C309.85 319.637 311.316 318.556 312.48 317.049C314.454 314.479 315.526 311.866 315.934 309.158C316.239 307.136 316.169 305.06 315.825 302.92C315.567 301.299 315.153 299.643 314.622 297.943C313.88 295.586 313.556 292.865 315.748 290.054C315.748 290.053 304.12 288.413 305.015 283.974C305.03 283.903 309.288 280.451 312.742 277.648C315.096 275.741 317.11 274.189 317.109 274.171C316.867 273.856 314.072 269.909 313.327 267.047C313.115 266.253 312.996 265.554 313.016 265.025C313.085 263.901 313.363 263.709 314.112 263.413C317.412 262.129 321.898 258.631 322.517 253.689C322.677 252.35 322.557 250.896 322.053 249.355Z" fill="#FF9669" />
            <path d="M309.73 210.191C301.77 211.08 302.473 225.925 296.775 223.43C290.847 220.834 295.203 212.453 295.203 212.453C307.586 204.852 297.26 180.984 306.84 177.677C307.891 180.634 308.841 183.794 309.597 187.01C311.505 195.189 311.225 202.942 309.73 210.191Z" fill="#FF9669" />
            <path d="M274.89 163.363C269.514 177.886 283.74 173.981 270.807 199.529C264.704 211.582 277.111 212.714 264.378 231.353C256.19 243.334 260.595 256.186 254.335 255.804C244.35 255.194 249.815 227.389 244.39 223.713C233.77 216.513 274.89 163.363 274.89 163.363Z" fill="#FF9669" />
            <path d="M231.673 309.338C232.63 318.523 228.84 315.834 242.577 328.804C252.483 338.157 225.695 358.78 241.304 375.824C257.47 393.477 199.696 413.85 207.649 365.329C215.603 316.808 231.673 309.338 231.673 309.338Z" fill="#FF9669" />
            <path d="M273.319 297.592C278.551 305.319 289.615 289.244 294.793 296.959C309.224 318.47 315.152 299.643 314.623 297.945C313.88 295.583 314.47 293.033 315.855 289.828C315.853 289.823 304.119 288.41 305.014 283.974C305.028 283.903 312.767 279.584 316.223 276.784C315.134 273.985 310.971 264.436 304.626 267.694C298.98 270.59 298.963 271.954 294.536 274.547C290.569 276.872 284.151 266.191 281.963 263.162C280.103 260.583 277.722 260.442 276.135 261.441C274.686 262.352 274.296 265.366 275.482 267.551C287.998 290.618 269.587 292.081 273.319 297.592Z" fill="#FF9669" />
            <path d="M297.81 211.916C296.822 215.007 300.959 219.052 297.94 224.193L285.399 227.379C285.399 227.379 290.411 217.002 286.926 212.549C284.43 209.357 297.81 211.916 297.81 211.916Z" fill="#E66135" />
            <path d="M296.755 226.412C287.758 227.514 280.869 230.696 280.475 230.738C279.474 230.846 284.004 225.187 294.976 222.955C298.357 222.268 300.693 220.007 302.033 218.959C302.652 218.558 300.576 226.08 296.755 226.412Z" fill="#751700" />
            <path d="M267.021 217.379C267.021 217.379 280.678 212.603 286.926 212.549C290.871 212.514 296.291 212.93 300.092 211.742C302.865 210.878 304.08 206.825 304.034 204.485C304.014 203.491 303.363 202.588 302.613 202.544C273.234 200.72 264.804 219.05 267.021 217.379Z" fill="#751700" />
            <path d="M295.503 283.812C297.048 284.349 310.254 281.973 312.543 282.172C314.582 282.35 317.042 285.539 315.855 289.828C313.165 296.125 299.901 289.439 295.503 283.812Z" fill="#E66135" />
            <path d="M241.806 312.797C245.153 321.361 281.664 353.976 269.014 382.549C264.657 392.389 252.213 413.809 273.768 397.476C279.249 393.322 280.684 385.802 280.726 382.7C275.724 364.799 274.589 341.767 275.069 332.456C275.375 326.543 278.924 320.753 284.739 320.929C284.818 320.932 284.899 320.929 284.994 320.937C285.079 320.942 285.177 320.948 285.272 320.957C277.072 320.083 251.556 312.999 245.024 304.736C238.686 296.719 239.037 287.771 239.037 287.771C238.325 280.39 234.624 294.442 241.806 312.797Z" fill="#E66135" />
            <path d="M294.932 282.93C294.831 282.639 295.101 282.225 295.344 282.35C301.896 285.697 308.159 275.988 313.994 273.537C316.319 272.562 317.316 274.275 317.597 275.067C318.987 279.029 316.101 281.841 313.621 282.936C310.882 284.147 296.497 287.353 294.932 282.93Z" fill="#BA4109" />
            <path d="M314.111 263.414C313.365 263.714 313.074 263.899 313.018 265.025C312.988 265.638 313.352 267.141 313.352 267.141C312.52 264.9 307.985 266.169 305.412 263.62C302.516 260.752 304.247 255.034 304.661 255.65C304.661 255.65 304.033 258.646 306.39 261.63C307.233 262.697 309.265 263.414 311.554 262.472C314.779 261.147 314.779 262.083 318.089 261.051C317.969 261.122 316.913 262.278 314.111 263.414Z" fill="#E66135" />
            <path d="M292.959 228.801C293.166 230.777 294.316 232.224 295.529 232.037C296.745 231.847 297.561 230.095 297.355 228.12C297.149 226.146 295.998 224.699 294.785 224.886C293.568 225.076 292.753 226.828 292.959 228.801Z" fill="#751700" />
            <path d="M422 510.8H85.1306V464.491C103.27 418.47 200.361 371.71 200.361 371.71C214.95 379.222 249.096 396.373 276.824 372.348C284.835 365.406 280.694 387.791 302.786 397.883C329.036 409.882 375.195 408.603 403.777 460.424C408.914 469.737 415.53 488.438 422 510.8Z" fill="#A20E2E" />
            <path d="M305.012 163.406C291.601 175.022 265.146 190.331 261.919 213.321C257.871 242.129 250.623 234.33 246.52 228.884C246.495 228.799 242.514 254.826 243.113 259.103C254.728 342.416 209.736 323.823 219.592 397.204C230.111 475.475 196.222 463.763 192.954 510.8H48C52.7632 434.331 78.8574 435.844 85.1312 389.952C94.3931 322.204 120.949 322.386 126.998 284.67C134.374 238.672 124.576 223.391 140.169 178.492C143.477 168.967 149.489 154.008 158.266 143.473C191.929 103.078 237.124 119.395 259.655 126.093C267.683 128.485 275.665 130.346 283.77 129.39C311.59 126.066 313.737 151.655 305.012 163.406Z" fill="#751700" />
            <path d="M232.988 218.078C225.402 215.654 221.241 221.186 218.979 225.344C216.739 229.461 216.445 236.55 218.257 242.01C220.182 247.805 224.253 256.006 227.336 260.415C230.131 264.414 236.634 272.591 242.657 271.747C246.452 271.216 245.749 266.729 245.349 260.866L246.52 228.885C246.52 228.885 239.148 220.046 232.988 218.078Z" fill="#FF9669" />
            <path d="M243.596 254.195C245.726 255.994 243.126 260.27 240.929 257.679C238.73 255.088 234.316 254.96 232.458 252.214C229.224 247.433 227.726 240.142 230.822 237.372C235.188 233.472 239.401 235.77 240.134 240.024C240.543 242.399 238.306 245.359 238.547 247.069C239.311 252.509 242.084 252.918 243.596 254.195Z" fill="#E66135" />
            <path d="M221.949 237.879C221.949 237.879 221.019 232.468 224.225 228.366C225.601 226.606 227.847 224.416 231.597 224.746C235.15 225.059 238.797 229.746 237.528 230.42C236.917 230.841 230.952 225.954 226.141 229.68C223.314 231.867 222.212 238.791 221.949 237.879Z" fill="#E66135" />
        </g>
    </g>
    <defs>
        <clipPath id="clip0">
            <rect width="470" height="512" fill="white" />
        </clipPath>
    </defs>
</svg>